<?xml version="1.0" encoding="UTF-8"?>
<svg width="40px" height="40px" viewBox="0 0 40 40" version="1.1" xmlns="http://www.w3.org/2000/svg" xmlns:xlink="http://www.w3.org/1999/xlink">
    <!-- Generator: Sketch 48.1 (47250) - http://www.bohemiancoding.com/sketch -->
    <title>nav_icon09</title>
    <desc>Created with Sketch.</desc>
    <defs>
        <linearGradient x1="106.067183%" y1="105.859166%" x2="17.8423274%" y2="6.51529175%" id="linearGradient-1">
            <stop stop-color="#6D7184" offset="0%"></stop>
            <stop stop-color="#91ADC4" offset="100%"></stop>
        </linearGradient>
    </defs>
    <g id="Symbols" stroke="none" stroke-width="1" fill="none" fill-rule="evenodd">
        <g id="nav_icon09" fill="url(#linearGradient-1)" fill-rule="nonzero">
            <g id="Group" transform="translate(2.854167, 5.000000)">
                <path d="M5.68214892,14.8091147 L11.0389388,24.6298961 L22.9116136,24.6298961 L28.2684035,14.8091147 L22.9116136,4.98833338 L11.0389388,4.98833338 L5.68214892,14.8091147 Z M25.8728534,0 L33.9505524,14.8091147 L25.8728534,29.6182295 L8.07769895,29.6182295 L0,14.8091147 L8.07769895,0 L25.8728534,0 Z" id="Path-6"></path>
                <path d="M17.1311616,19.4856773 C14.5483674,19.4856773 12.4545991,17.3919089 12.4545991,14.8091147 C12.4545991,12.2263206 14.5483674,10.1325522 17.1311616,10.1325522 C19.7139558,10.1325522 21.8077242,12.2263206 21.8077242,14.8091147 C21.8077242,17.3919089 19.7139558,19.4856773 17.1311616,19.4856773 Z M17.1311616,15.8764846 C17.7206537,15.8764846 18.1985314,15.3986068 18.1985314,14.8091147 C18.1985314,14.2196227 17.7206537,13.7417449 17.1311616,13.7417449 C16.5416695,13.7417449 16.0637918,14.2196227 16.0637918,14.8091147 C16.0637918,15.3986068 16.5416695,15.8764846 17.1311616,15.8764846 Z" id="Oval-10"></path>
            </g>
        </g>
    </g>
</svg>