<?xml version="1.0" encoding="UTF-8"?>
<svg width="40px" height="40px" viewBox="0 0 40 40" version="1.1" xmlns="http://www.w3.org/2000/svg" xmlns:xlink="http://www.w3.org/1999/xlink">
    <!-- Generator: Sketch 48.1 (47250) - http://www.bohemiancoding.com/sketch -->
    <title>nav_icon06</title>
    <desc>Created with Sketch.</desc>
    <defs>
        <linearGradient x1="128.469328%" y1="100%" x2="11.9631943%" y2="19.8523038%" id="linearGradient-1">
            <stop stop-color="#FB9F38" offset="0.404575893%"></stop>
            <stop stop-color="#FF1A40" offset="100%"></stop>
        </linearGradient>
    </defs>
    <g id="Symbols" stroke="none" stroke-width="1" fill="none" fill-rule="evenodd">
        <g id="nav_icon06" fill="url(#linearGradient-1)">
            <g id="Group" transform="translate(4.000000, 6.000000)">
                <path d="M2.51000006,9.42780509 L5.02000011,9.42780509 L5.02000011,10.942988 L5.02000011,9.42780509 L2.51000006,9.42780509 Z M5.02000011,10.942988 L5.02000011,22.5900005 L26.9825006,22.5900005 L26.9825006,5.02000011 L0,5.02000011 L0,0 L32.0025007,0 L32.0025007,27.6100006 L0,27.6100006 L0,12.458171 L5.02000011,12.458171 L5.02000011,10.942988 Z M26.9825006,0 L32.0025007,5.02000011 L26.9825006,5.02000011 L26.9825006,0 Z M32.0025007,22.5900005 L26.9825006,27.6100006 L26.9825006,22.5900005 L32.0025007,22.5900005 Z M5.02000011,27.6100006 L6.25277607e-13,22.5900005 L5.02000011,22.5900005 L5.02000011,27.6100006 Z M2.51000006,9.42780509 L6.25277607e-13,9.42780509 L2.51000006,9.42780509 Z M5.02000011,22.5900005 L26.9825006,22.5900005 L26.9825006,5.02000011 L0,5.02000011 L0,0 L32.0025007,0 L32.0025007,27.6100006 L0,27.6100006 L5.02000011,22.5900005 Z M0,10.0400002 L0.313750007,6.58875015 L8.15750018,13.8050003 L0,13.8050003 L0,10.0400002 Z M6.25277607e-13,22.5900005 L5.02000011,27.6100006 L5.02000011,22.5900005 L6.25277607e-13,22.5900005 Z M32.0025007,22.5900005 L26.9825006,27.6100006 L26.9825006,22.5900005 L32.0025007,22.5900005 Z M26.9825006,0 L32.0025007,5.02000011 L26.9825006,5.02000011 L26.9825006,0 Z M5.02000011,10.942988 L5.02000011,9.42780509 L0,9.42780509 L5.02000011,9.42780509 L5.02000011,10.942988 Z" id="Rectangle-14" fill-rule="nonzero" transform="translate(16.001250, 13.805000) scale(-1, -1) translate(-16.001250, -13.805000) "></path>
                <rect id="Rectangle-15" x="7.53000017" y="7.53000017" width="8.15750018" height="3.13750007"></rect>
                <rect id="Rectangle-15-Copy" x="7.53000017" y="11.9225003" width="8.15750018" height="3.13750007"></rect>
            </g>
        </g>
    </g>
</svg>