<?xml version="1.0" encoding="UTF-8"?>
<svg width="32px" height="32px" viewBox="0 0 32 32" version="1.1" xmlns="http://www.w3.org/2000/svg" xmlns:xlink="http://www.w3.org/1999/xlink">
    <!-- Generator: Sketch 48.1 (47250) - http://www.bohemiancoding.com/sketch -->
    <title>nav_icon02</title>
    <desc>Created with Sketch.</desc>
    <defs>
        <path d="M4.609,0.0001 L4.609,3 L0.001,3 L0.001,6.5201 C0.001,6.5991 0.019,8.4271 0.716,10.2781 C1.142,11.4091 1.732,12.3141 2.474,12.9781 C3.113,13.5481 3.855,13.9231 4.689,14.1061 C4.973,16.5301 6.029,18.7751 7.739,20.5291 C9.462,22.2961 11.669,23.3821 14.055,23.6631 L14.036,27.1481 L8.428,27.1481 L8.428,30.7341 L22.257,30.7341 L22.257,27.1481 L16.632,27.1481 L16.652,23.6481 C19.018,23.3461 21.208,22.2561 22.919,20.5001 C24.61,18.7661 25.666,16.5561 25.978,14.1671 C26.815,13.9901 27.561,13.6291 28.203,13.0781 C28.945,12.4401 29.539,11.5651 29.965,10.4781 C30.666,8.6941 30.684,6.9321 30.684,6.8581 L30.684,3 L26.077,3 L26.077,0.0001 L4.609,0.0001 Z M12.402,8.9511 L17.068,4.2851 L18.429,5.6451 L13.762,10.3121 L12.402,8.9511 Z M2.60312102,6 L5.00056431,6 L5.00056431,11.0850822 C4.41825989,10.8892564 3.28568219,10.2557069 3.00010354,9.5 C2.5979383,8.72301452 2.4656108,7.55634785 2.60312102,6 Z M26.0803351,6 L28.5,6 C28.4839256,7.1944844 28.3245928,8.17689123 28.0220015,8.94722048 C27.5920874,10.0363893 26.9496136,10.7132243 26.077,11.0001 L26.0803351,6 Z M12.402,14.5861 L17.068,9.9191 L18.429,11.2791 L13.762,15.9461 L12.402,14.5861 Z" id="path-1"></path>
    </defs>
    <g id="Symbols" stroke="none" stroke-width="1" fill="none" fill-rule="evenodd">
        <g id="nav_icon02">
            <g id="Page-1" transform="translate(1.000000, 1.000000)">
                <mask id="mask-2" fill="white">
                    <use xlink:href="#path-1"></use>
                </mask>
                <use id="Clip-2" fill="#FFB700" xlink:href="#path-1"></use>
            </g>
        </g>
    </g>
</svg>