<?xml version="1.0" encoding="UTF-8"?>
<svg width="32px" height="32px" viewBox="0 0 32 32" version="1.1" xmlns="http://www.w3.org/2000/svg" xmlns:xlink="http://www.w3.org/1999/xlink">
    <!-- Generator: Sketch 48.1 (47250) - http://www.bohemiancoding.com/sketch -->
    <title>nav_icon04</title>
    <desc>Created with Sketch.</desc>
    <defs></defs>
    <g id="Symbols" stroke="none" stroke-width="1" fill="none" fill-rule="evenodd">
        <g id="nav_icon04" fill="#1DB5F5">
            <g id="Page-1" transform="translate(1.000000, 1.000000)">
                <path d="M14.978,-0.0003 C6.705,-0.0003 0,6.7057 0,14.9777 C0,23.2497 6.705,29.9557 14.978,29.9557 C23.251,29.9557 29.956,23.2497 29.956,14.9777 C29.956,6.7057 23.251,-0.0003 14.978,-0.0003 Z M9.901,12.1887 C9.618,11.8987 9.478,11.5857 9.478,11.2487 C9.478,10.5517 9.701,9.8457 10.148,9.1317 C10.596,8.4157 11.248,7.8237 12.107,7.3537 C12.964,6.8847 13.965,6.6507 15.11,6.6507 C16.173,6.6507 17.112,6.8467 17.926,7.2387 C18.74,7.6317 19.369,8.1647 19.813,8.8387 C20.256,9.5137 20.478,10.2477 20.478,11.0397 C20.478,11.6637 20.352,12.2097 20.099,12.6787 L20.098,12.6787 C19.845,13.1487 19.544,13.5537 19.197,13.8947 C18.848,14.2357 18.223,14.8097 17.32,15.6157 C17.071,15.8427 16.871,16.0437 16.721,16.2157 C16.571,16.3877 16.459,16.5457 16.386,16.6877 C16.312,16.8307 16.255,16.9737 16.215,17.1167 C16.175,17.2597 16.115,17.5107 16.033,17.8707 C15.894,18.6337 15.458,19.0157 14.725,19.0157 C14.343,19.0157 14.023,18.8897 13.762,18.6407 C13.501,18.3917 13.371,18.0217 13.371,17.5307 C13.371,16.9137 13.467,16.3807 13.658,15.9287 C13.848,15.4787 14.101,15.0827 14.416,14.7417 C14.732,14.3997 15.157,13.9947 15.692,13.5257 C16.161,13.1147 16.501,12.8057 16.71,12.5957 C16.919,12.3877 17.095,12.1547 17.239,11.8977 C17.381,11.6407 17.453,11.3637 17.453,11.0607 C17.453,10.4757 17.234,9.9807 16.799,9.5757 C16.362,9.1737 15.799,8.9717 15.108,8.9717 C14.302,8.9717 13.708,9.1767 13.327,9.5827 C12.946,9.9897 12.623,10.5887 12.359,11.3817 C12.109,12.2097 11.636,12.6237 10.939,12.6237 C10.528,12.6237 10.183,12.4787 9.901,12.1887 Z M13.674,22.8707 C13.34,22.5807 13.174,22.1757 13.174,21.6547 C13.174,21.1937 13.335,20.8047 13.658,20.4897 C13.98,20.1747 14.377,20.0157 14.846,20.0157 C15.308,20.0157 15.697,20.1747 16.012,20.4897 C16.328,20.8047 16.484,21.1937 16.484,21.6547 C16.484,22.1687 16.32,22.5717 15.989,22.8657 C15.659,23.1587 15.277,23.3057 14.846,23.3057 C14.398,23.3057 14.008,23.1607 13.674,22.8707 Z" id="Fill-1"></path>
            </g>
        </g>
    </g>
</svg>